<svg xmlns="http://www.w3.org/2000/svg" viewBox="0 0 70 70">
  <!-- Main geometric shape -->
  <path d="M67.9646 38.7306L40.0976 66.9956C37.9798 69.1366 34.5556 69.1366 32.4384 66.9956L4.57142 38.7306C2.46056 36.5824 2.46056 33.1094 4.57142 30.9618L32.4384 2.69676C34.5564 0.555754 37.9804 0.555754 40.0976 2.69676L67.9646 30.9618C70.0756 33.1094 70.0756 36.5824 67.9646 38.7306Z" fill="url(#paint2_linear)"/>

  <!-- Dollar symbol elements -->
  <path d="M35 17V53M43 22H31C27 22 24 25 24 29C24 33 27 36 31 36H39C43 36 46 39 46 43C46 47 43 50 39 50H27" stroke="url(#paint6_linear)" stroke-width="4" stroke-linecap="round"/>

  <!-- Accent shapes -->
  <path opacity="0.28" d="M66.2242 31.1638C60.93 33.7582 52.9472 34.811 41.5954 29.6712C27.2526 23.1858 13.6182 27.935 4.81738 32.9558C5.00316 32.5932 5.2434 32.2514 5.5464 31.9448L33.4064 3.67966C34.1694 2.91228 35.1872 2.48734 36.2668 2.48734C37.3462 2.48734 38.3634 2.91294 39.1272 3.68682L66.2242 31.1638Z" fill="url(#paint3_linear)"/>

  <!-- Additional decorative elements -->
  <path opacity="0.44" d="M55.8542 37.6492L51.8042 52.9988L49.48 49.045L42.2884 56.3464C40.6106 58.041 38.7612 59.5056 36.774 60.705C34.1884 62.2742 31.294 62.9922 28.4266 62.93L23.5792 58.013C28.8936 57.7128 33.8374 55.4816 37.633 51.6324L44.9624 44.2054L40.4242 41.451L55.8542 37.6492Z" fill="url(#paint4_linear)"/>

  <!-- Gradient definitions -->
  <defs>
    <linearGradient id="paint2_linear" x1="36.0124" y1="62.1926" x2="36.7198" y2="-11.3782" gradientUnits="userSpaceOnUse">
      <stop stop-color="#0058D4"/>
      <stop offset="1" stop-color="#00245B"/>
    </linearGradient>

    <linearGradient id="paint3_linear" x1="35.7076" y1="16.0852" x2="35.4718" y2="35.7282" gradientUnits="userSpaceOnUse">
      <stop stop-color="#000000"/>
      <stop offset="1" stop-color="#B0D1FF"/>
    </linearGradient>

    <linearGradient id="paint4_linear" x1="23.5804" y1="50.2916" x2="55.8546" y2="50.2916" gradientUnits="userSpaceOnUse">
      <stop stop-color="#001334"/>
      <stop offset="1" stop-color="#00245B"/>
    </linearGradient>

    <linearGradient id="paint6_linear" x1="24" y1="35" x2="46" y2="35" gradientUnits="userSpaceOnUse">
      <stop stop-color="#0065FF"/>
      <stop offset="1" stop-color="#00C4F7"/>
    </linearGradient>
  </defs>
</svg>